<svg width="94" height="96" viewBox="0 0 94 96" fill="none" xmlns="http://www.w3.org/2000/svg">
<path d="M27.2336 1.01142L47.4392 17.6539C53.5888 12.3984 65.8879 1.88734 67.6449 1.01142C69.4019 0.135505 71.1589 1.01142 71.1589 1.01142C77.3084 6.26694 90.486 16.778 92.243 18.5298C94 20.2816 94 21.1576 94 22.0335V55.3184C94 57.0703 93.1215 57.9462 92.243 58.8221C78.1869 70.209 50.0748 94.7348 48.3178 95.6107C46.5607 96.4866 45.6822 95.6107 44.8037 95.6107C30.7477 83.3478 2.63552 59.698 0.878508 58.8221C3.33814e-06 57.9462 0 56.1943 0 55.3184V22.0335C0 19.4057 0.878511 18.5298 1.75702 18.5298C7.90655 13.2743 21.0841 1.88734 22.8411 1.01142C24.5981 -0.740414 26.3551 0.135505 27.2336 1.01142Z" fill="url(#paint0_linear_342_894)"/>
<path d="M27.2336 1.01142L47.4392 17.6539C53.5888 12.3984 65.8879 1.88734 67.6449 1.01142C69.4019 0.135505 71.1589 1.01142 71.1589 1.01142C77.3084 6.26694 90.486 16.778 92.243 18.5298C94 20.2816 94 21.1576 94 22.0335V55.3184C94 57.0703 93.1215 57.9462 92.243 58.8221C78.1869 70.209 50.0748 94.7348 48.3178 95.6107C46.5607 96.4866 45.6822 95.6107 44.8037 95.6107C30.7477 83.3478 2.63552 59.698 0.878508 58.8221C3.33814e-06 57.9462 0 56.1943 0 55.3184V22.0335C0 19.4057 0.878511 18.5298 1.75702 18.5298C7.90655 13.2743 21.0841 1.88734 22.8411 1.01142C24.5981 -0.740414 26.3551 0.135505 27.2336 1.01142Z" fill="url(#paint1_linear_342_894)"/>
<path d="M27.2336 1.01142L47.4392 17.6539C53.5888 12.3984 65.8879 1.88734 67.6449 1.01142C69.4019 0.135505 71.1589 1.01142 71.1589 1.01142C77.3084 6.26694 90.486 16.778 92.243 18.5298C94 20.2816 94 21.1576 94 22.0335V55.3184C94 57.0703 93.1215 57.9462 92.243 58.8221C78.1869 70.209 50.0748 94.7348 48.3178 95.6107C46.5607 96.4866 45.6822 95.6107 44.8037 95.6107C30.7477 83.3478 2.63552 59.698 0.878508 58.8221C3.33814e-06 57.9462 0 56.1943 0 55.3184V22.0335C0 19.4057 0.878511 18.5298 1.75702 18.5298C7.90655 13.2743 21.0841 1.88734 22.8411 1.01142C24.5981 -0.740414 26.3551 0.135505 27.2336 1.01142Z" fill="url(#paint2_linear_342_894)"/>
<defs>
<linearGradient id="paint0_linear_342_894" x1="46.9649" y1="0.205579" x2="46.8251" y2="96.4253" gradientUnits="userSpaceOnUse">
<stop stop-color="#FD1669"/>
<stop offset="1" stop-color="#FF5AC6"/>
</linearGradient>
<linearGradient id="paint1_linear_342_894" x1="46.9649" y1="0.205579" x2="46.8251" y2="96.4253" gradientUnits="userSpaceOnUse">
<stop stop-color="#FD1669"/>
<stop offset="1" stop-color="#FF5AC6"/>
</linearGradient>
<linearGradient id="paint2_linear_342_894" x1="46.9649" y1="0.205579" x2="46.8251" y2="96.4253" gradientUnits="userSpaceOnUse">
<stop stop-color="#FD1669"/>
<stop offset="1" stop-color="#FF5AC6"/>
</linearGradient>
</defs>
</svg>
